<svg xmlns="http://www.w3.org/2000/svg" version="1.1" xmlns:xlink="http://www.w3.org/1999/xlink" xmlns:svgjs="http://svgjs.com/svgjs" width="1440" height="700" preserveAspectRatio="none" viewBox="0 0 1440 700"><g mask="url(&quot;#SvgjsMask1019&quot;)" fill="none"><path d="M1361.09 208.04 a8.83 8.83 0 1 0 17.66 0 a8.83 8.83 0 1 0 -17.66 0z" stroke="#e73635"></path><path d="M342.25 348.09L368.34 348.09L368.34 374.18L342.25 374.18z" stroke="#e73635"></path><path d="M1160.89 86.38a57.04 57.04 0 1 0-65.5-93.4z" stroke="#037b0b"></path><path d="M1218.79 506.79L1275.38 506.79L1275.38 563.38L1218.79 563.38z" fill="#d3b714"></path><path d="M383.42 427.81L431.3 427.81L431.3 471.63L383.42 471.63z" stroke="#d3b714"></path><path d="M628.28 443.73a5.62 5.62 0 1 0-10.73-3.35z" fill="#e73635"></path><path d="M904.21 497.75L960.22 497.75L960.22 545.34L904.21 545.34z" fill="#d3b714"></path><path d="M320.15 118.49 a29.58 29.58 0 1 0 59.16 0 a29.58 29.58 0 1 0 -59.16 0z" stroke="#037b0b"></path><path d="M966.85 464.25L1034.44 464.25L1034.44 531.84L966.85 531.84z" stroke="#e73635"></path><path d="M1395.22 150.69L1460.42 150.69L1460.42 188.5L1395.22 188.5z" stroke="#d3b714"></path><path d="M338.49 584.59 a0.45 0.45 0 1 0 0.9 0 a0.45 0.45 0 1 0 -0.9 0z" fill="#e73635"></path><path d="M1272.41 400.4 a47.18 47.18 0 1 0 94.36 0 a47.18 47.18 0 1 0 -94.36 0z" fill="#d3b714"></path><path d="M22.59 89.86L84.1 89.86L84.1 141.54L22.59 141.54z" stroke="#d3b714"></path><path d="M237.19 44.25L244.49 44.25L244.49 89.82L237.19 89.82z" fill="#037b0b"></path><path d="M310.92 581.5L321.05 581.5L321.05 629.82L310.92 629.82z" fill="#d3b714"></path><path d="M978.61 647.57 a19.73 19.73 0 1 0 39.46 0 a19.73 19.73 0 1 0 -39.46 0z" fill="#037b0b"></path><path d="M265.63 378.51 a12.72 12.72 0 1 0 25.44 0 a12.72 12.72 0 1 0 -25.44 0z" fill="#e73635"></path><path d="M1025.01 271.1L1055.42 271.1L1055.42 301.51L1025.01 301.51z" fill="#d3b714"></path><path d="M129.43 172.25L144.77 172.25L144.77 210.98L129.43 210.98z" fill="#037b0b"></path><path d="M716.59 610.75L726.3 610.75L726.3 633.54L716.59 633.54z" stroke="#d3b714"></path><path d="M1418.83 13.01L1483.51 13.01L1483.51 47.49L1418.83 47.49z" fill="#037b0b"></path><path d="M1076.18 686.21L1116.82 686.21L1116.82 726.85L1076.18 726.85z" fill="#e73635"></path><path d="M843.55 74.55a48.21 48.21 0 1 0-2.29 96.4z" fill="#e73635"></path><path d="M1085.33 573.37L1155.22 573.37L1155.22 643.26L1085.33 643.26z" fill="#d3b714"></path><path d="M340.79 479.96L362.26 479.96L362.26 503.6L340.79 503.6z" fill="#d3b714"></path><path d="M1084.74 63.5 a6.93 6.93 0 1 0 13.86 0 a6.93 6.93 0 1 0 -13.86 0z" stroke="#e73635"></path></g><defs><mask id="SvgjsMask1019"><rect width="1440" height="700" fill="#ffffff"></rect></mask></defs></svg>