<svg xmlns="http://www.w3.org/2000/svg" version="1.1" xmlns:xlink="http://www.w3.org/1999/xlink" xmlns:svgjs="http://svgjs.com/svgjs" width="1700" height="700" preserveAspectRatio="none" viewBox="0 0 1700 700"><g mask="url(&quot;#SvgjsMask1164&quot;)" fill="none"><use xlink:href="#SvgjsG1171" transform="translate(0, 0)" fill="rgba(255, 165, 0, 1)"></use><use xlink:href="#SvgjsG1171" transform="translate(0, 480)" fill="rgba(255, 165, 0, 1)"></use><use xlink:href="#SvgjsG1171" transform="translate(480, 0)" fill="rgba(255, 165, 0, 1)"></use><use xlink:href="#SvgjsG1171" transform="translate(480, 480)" fill="rgba(255, 165, 0, 1)"></use><use xlink:href="#SvgjsG1171" transform="translate(960, 0)" fill="rgba(255, 165, 0, 1)"></use><use xlink:href="#SvgjsG1171" transform="translate(960, 480)" fill="rgba(255, 165, 0, 1)"></use><use xlink:href="#SvgjsG1171" transform="translate(1440, 0)" fill="rgba(255, 165, 0, 1)"></use><use xlink:href="#SvgjsG1171" transform="translate(1440, 480)" fill="rgba(255, 165, 0, 1)"></use></g><defs><mask id="SvgjsMask1164"><rect width="1700" height="700" fill="#ffffff"></rect></mask><g id="SvgjsG1166"><path d="M8 14.66l5.904-5.908c1.836-1.836 1.8-4.512 0.132-6.174A4.268 4.268 0 0 0 8 2.58a4.264 4.264 0 0 0-6.03-0.02C0.3 4.24 0.26 6.92 2.1 8.744L8 14.66z"></path></g><g id="SvgjsG1169"><path d="M7.409 15.987C7.482 13.521 6.141 12.591 4.505 11.978c-0.544 2.109 0.956 3.865 2.904 4.009m0.37-11.013c1.043-2.235 0.179-3.624-1.085-4.834-1.327 1.724-0.644 3.93 1.085 4.834m0.589 6.218c-0.072-2.466 1.268-3.398 2.905-4.009 0.542 2.109-0.957 3.865-2.905 4.009m0 3.801c-0.072-2.465 1.268-3.395 2.905-4.008 0.542 2.108-0.957 3.865-2.905 4.008m0-7.598c-0.072-2.466 1.268-3.398 2.905-4.011 0.542 2.111-0.957 3.865-2.905 4.011M7.409 12.185C7.482 9.72 6.141 8.787 4.505 8.177c-0.544 2.109 0.956 3.865 2.904 4.009m0-3.8C7.482 5.919 6.141 4.987 4.505 4.373c-0.544 2.111 0.956 3.866 2.904 4.013" fill-rule="evenodd"></path></g><g id="SvgjsG1170"><path d="M16 11.289H0C0.001 12.447 0.884 12.984 1.594 12.987H14.406c0.847-0.003 1.59-0.669 1.594-1.698zM12.96 3.12H3.413v6.263c0.002 0.851 0.734 1.523 1.525 1.525h6.194c0.893-0.002 1.502-0.752 1.498-1.525v-0.519c1.768-0.002 3.05-1.328 3.05-2.876 0.001-1.575-1.256-2.869-2.72-2.868zM12.63 7.668V4.298h0.33c1.211-0.002 1.599 1.143 1.593 1.698 0.001 0.896-0.662 1.755-1.923 1.672z"></path></g><g id="SvgjsG1165"><path d="M12.049 4.244l-1.49 11.735H5.527L4.041 4.244h6.146L11.403 0 12.091 0.193l-1.164 4.048 1.122 0.003z" fill-rule="evenodd"></path></g><g id="SvgjsG1168"><path d="M3.044 12.188V8.93c0-2.836 2.475-5.244 5.463-5.245 3.022-0.004 5.465 2.352 5.465 5.245v3.258h1.351V8.93C15.332 5.276 12.27 2.325 8.51 2.325 4.777 2.325 1.689 5.333 1.689 8.93v3.258h1.355z"></path><path d="M5.463 14.702l-1.781 0.006V9.593h1.785c0.921 2.372 0 5.111 0 5.111m6.049-5.109H13.298V14.702l-1.783 0.006c-0.921-2.373 0-5.113 0-5.113"></path></g><g id="SvgjsG1167"><path d="M11.406 2.678H4.629C0.382 2.678 0.682 5.459 0.682 5.459h14.67S15.66 2.678 11.406 2.678zM4.629 13.447h6.777c4.254 0 3.947-2.789 3.946-2.789H0.682s-0.3 2.789 3.947 2.789z m10.087-4.135a1.259 1.259 0 0 0 1.259-1.259c0-0.69-0.562-1.252-1.259-1.252H1.259C0.566 6.801 0 7.363 0 8.052a1.262 1.262 0 0 0 1.259 1.26h13.457z" fill-rule="evenodd"></path></g><g id="SvgjsG1171"><use xlink:href="#SvgjsG1165" transform="translate(0, 0) scale(2)" fill="rgba(255, 165, 0, 1)"></use><use xlink:href="#SvgjsG1166" transform="translate(0, 48) scale(2)" fill="rgba(255, 165, 0, 1)"></use><use xlink:href="#SvgjsG1167" transform="translate(0, 96) scale(2)" fill="rgba(255, 165, 0, 1)"></use><use xlink:href="#SvgjsG1166" transform="translate(0, 144) scale(2)" fill="rgba(255, 165, 0, 1)"></use><use xlink:href="#SvgjsG1168" transform="translate(0, 192) scale(2)" fill="rgba(255, 165, 0, 1)"></use><use xlink:href="#SvgjsG1166" transform="translate(0, 240) scale(2)" fill="rgba(255, 165, 0, 1)"></use><use xlink:href="#SvgjsG1165" transform="translate(0, 288) scale(2)" fill="rgba(255, 165, 0, 1)"></use><use xlink:href="#SvgjsG1165" transform="translate(0, 336) scale(2)" fill="rgba(255, 165, 0, 1)"></use><use xlink:href="#SvgjsG1169" transform="translate(0, 384) scale(2)" fill="rgba(255, 165, 0, 1)"></use><use xlink:href="#SvgjsG1165" transform="translate(0, 432) scale(2)" fill="rgba(255, 165, 0, 1)"></use><use xlink:href="#SvgjsG1168" transform="translate(48, 0) scale(2)" fill="rgba(255, 165, 0, 1)"></use><use xlink:href="#SvgjsG1170" transform="translate(48, 48) scale(2)" fill="rgba(255, 165, 0, 1)"></use><use xlink:href="#SvgjsG1166" transform="translate(48, 96) scale(2)" fill="rgba(255, 165, 0, 1)"></use><use xlink:href="#SvgjsG1167" transform="translate(48, 144) scale(2)" fill="rgba(255, 165, 0, 1)"></use><use xlink:href="#SvgjsG1165" transform="translate(48, 192) scale(2)" fill="rgba(255, 165, 0, 1)"></use><use xlink:href="#SvgjsG1165" transform="translate(48, 240) scale(2)" fill="rgba(255, 165, 0, 1)"></use><use xlink:href="#SvgjsG1165" transform="translate(48, 288) scale(2)" fill="rgba(255, 165, 0, 1)"></use><use xlink:href="#SvgjsG1170" transform="translate(48, 336) scale(2)" fill="rgba(255, 165, 0, 1)"></use><use xlink:href="#SvgjsG1167" transform="translate(48, 384) scale(2)" fill="rgba(255, 165, 0, 1)"></use><use xlink:href="#SvgjsG1170" transform="translate(48, 432) scale(2)" fill="rgba(255, 165, 0, 1)"></use><use xlink:href="#SvgjsG1167" transform="translate(96, 0) scale(2)" fill="rgba(255, 165, 0, 1)"></use><use xlink:href="#SvgjsG1168" transform="translate(96, 48) scale(2)" fill="rgba(255, 165, 0, 1)"></use><use xlink:href="#SvgjsG1170" transform="translate(96, 96) scale(2)" fill="rgba(255, 165, 0, 1)"></use><use xlink:href="#SvgjsG1170" transform="translate(96, 144) scale(2)" fill="rgba(255, 165, 0, 1)"></use><use xlink:href="#SvgjsG1167" transform="translate(96, 192) scale(2)" fill="rgba(255, 165, 0, 1)"></use><use xlink:href="#SvgjsG1168" transform="translate(96, 240) scale(2)" fill="rgba(255, 165, 0, 1)"></use><use xlink:href="#SvgjsG1169" transform="translate(96, 288) scale(2)" fill="rgba(255, 165, 0, 1)"></use><use xlink:href="#SvgjsG1170" transform="translate(96, 336) scale(2)" fill="rgba(255, 165, 0, 1)"></use><use xlink:href="#SvgjsG1168" transform="translate(96, 384) scale(2)" fill="rgba(255, 165, 0, 1)"></use><use xlink:href="#SvgjsG1167" transform="translate(96, 432) scale(2)" fill="rgba(255, 165, 0, 1)"></use><use xlink:href="#SvgjsG1166" transform="translate(144, 0) scale(2)" fill="rgba(255, 165, 0, 1)"></use><use xlink:href="#SvgjsG1166" transform="translate(144, 48) scale(2)" fill="rgba(255, 165, 0, 1)"></use><use xlink:href="#SvgjsG1170" transform="translate(144, 96) scale(2)" fill="rgba(255, 165, 0, 1)"></use><use xlink:href="#SvgjsG1169" transform="translate(144, 144) scale(2)" fill="rgba(255, 165, 0, 1)"></use><use xlink:href="#SvgjsG1170" transform="translate(144, 192) scale(2)" fill="rgba(255, 165, 0, 1)"></use><use xlink:href="#SvgjsG1165" transform="translate(144, 240) scale(2)" fill="rgba(255, 165, 0, 1)"></use><use xlink:href="#SvgjsG1165" transform="translate(144, 288) scale(2)" fill="rgba(255, 165, 0, 1)"></use><use xlink:href="#SvgjsG1165" transform="translate(144, 336) scale(2)" fill="rgba(255, 165, 0, 1)"></use><use xlink:href="#SvgjsG1169" transform="translate(144, 384) scale(2)" fill="rgba(255, 165, 0, 1)"></use><use xlink:href="#SvgjsG1166" transform="translate(144, 432) scale(2)" fill="rgba(255, 165, 0, 1)"></use><use xlink:href="#SvgjsG1168" transform="translate(192, 0) scale(2)" fill="rgba(255, 165, 0, 1)"></use><use xlink:href="#SvgjsG1169" transform="translate(192, 48) scale(2)" fill="rgba(255, 165, 0, 1)"></use><use xlink:href="#SvgjsG1166" transform="translate(192, 96) scale(2)" fill="rgba(255, 165, 0, 1)"></use><use xlink:href="#SvgjsG1168" transform="translate(192, 144) scale(2)" fill="rgba(255, 165, 0, 1)"></use><use xlink:href="#SvgjsG1169" transform="translate(192, 192) scale(2)" fill="rgba(255, 165, 0, 1)"></use><use xlink:href="#SvgjsG1169" transform="translate(192, 240) scale(2)" fill="rgba(255, 165, 0, 1)"></use><use xlink:href="#SvgjsG1170" transform="translate(192, 288) scale(2)" fill="rgba(255, 165, 0, 1)"></use><use xlink:href="#SvgjsG1168" transform="translate(192, 336) scale(2)" fill="rgba(255, 165, 0, 1)"></use><use xlink:href="#SvgjsG1166" transform="translate(192, 384) scale(2)" fill="rgba(255, 165, 0, 1)"></use><use xlink:href="#SvgjsG1168" transform="translate(192, 432) scale(2)" fill="rgba(255, 165, 0, 1)"></use><use xlink:href="#SvgjsG1165" transform="translate(240, 0) scale(2)" fill="rgba(255, 165, 0, 1)"></use><use xlink:href="#SvgjsG1165" transform="translate(240, 48) scale(2)" fill="rgba(255, 165, 0, 1)"></use><use xlink:href="#SvgjsG1169" transform="translate(240, 96) scale(2)" fill="rgba(255, 165, 0, 1)"></use><use xlink:href="#SvgjsG1167" transform="translate(240, 144) scale(2)" fill="rgba(255, 165, 0, 1)"></use><use xlink:href="#SvgjsG1169" transform="translate(240, 192) scale(2)" fill="rgba(255, 165, 0, 1)"></use><use xlink:href="#SvgjsG1166" transform="translate(240, 240) scale(2)" fill="rgba(255, 165, 0, 1)"></use><use xlink:href="#SvgjsG1165" transform="translate(240, 288) scale(2)" fill="rgba(255, 165, 0, 1)"></use><use xlink:href="#SvgjsG1167" transform="translate(240, 336) scale(2)" fill="rgba(255, 165, 0, 1)"></use><use xlink:href="#SvgjsG1170" transform="translate(240, 384) scale(2)" fill="rgba(255, 165, 0, 1)"></use><use xlink:href="#SvgjsG1170" transform="translate(240, 432) scale(2)" fill="rgba(255, 165, 0, 1)"></use><use xlink:href="#SvgjsG1165" transform="translate(288, 0) scale(2)" fill="rgba(255, 165, 0, 1)"></use><use xlink:href="#SvgjsG1170" transform="translate(288, 48) scale(2)" fill="rgba(255, 165, 0, 1)"></use><use xlink:href="#SvgjsG1166" transform="translate(288, 96) scale(2)" fill="rgba(255, 165, 0, 1)"></use><use xlink:href="#SvgjsG1169" transform="translate(288, 144) scale(2)" fill="rgba(255, 165, 0, 1)"></use><use xlink:href="#SvgjsG1167" transform="translate(288, 192) scale(2)" fill="rgba(255, 165, 0, 1)"></use><use xlink:href="#SvgjsG1169" transform="translate(288, 240) scale(2)" fill="rgba(255, 165, 0, 1)"></use><use xlink:href="#SvgjsG1169" transform="translate(288, 288) scale(2)" fill="rgba(255, 165, 0, 1)"></use><use xlink:href="#SvgjsG1168" transform="translate(288, 336) scale(2)" fill="rgba(255, 165, 0, 1)"></use><use xlink:href="#SvgjsG1170" transform="translate(288, 384) scale(2)" fill="rgba(255, 165, 0, 1)"></use><use xlink:href="#SvgjsG1168" transform="translate(288, 432) scale(2)" fill="rgba(255, 165, 0, 1)"></use><use xlink:href="#SvgjsG1168" transform="translate(336, 0) scale(2)" fill="rgba(255, 165, 0, 1)"></use><use xlink:href="#SvgjsG1169" transform="translate(336, 48) scale(2)" fill="rgba(255, 165, 0, 1)"></use><use xlink:href="#SvgjsG1168" transform="translate(336, 96) scale(2)" fill="rgba(255, 165, 0, 1)"></use><use xlink:href="#SvgjsG1166" transform="translate(336, 144) scale(2)" fill="rgba(255, 165, 0, 1)"></use><use xlink:href="#SvgjsG1165" transform="translate(336, 192) scale(2)" fill="rgba(255, 165, 0, 1)"></use><use xlink:href="#SvgjsG1166" transform="translate(336, 240) scale(2)" fill="rgba(255, 165, 0, 1)"></use><use xlink:href="#SvgjsG1168" transform="translate(336, 288) scale(2)" fill="rgba(255, 165, 0, 1)"></use><use xlink:href="#SvgjsG1170" transform="translate(336, 336) scale(2)" fill="rgba(255, 165, 0, 1)"></use><use xlink:href="#SvgjsG1166" transform="translate(336, 384) scale(2)" fill="rgba(255, 165, 0, 1)"></use><use xlink:href="#SvgjsG1165" transform="translate(336, 432) scale(2)" fill="rgba(255, 165, 0, 1)"></use><use xlink:href="#SvgjsG1167" transform="translate(384, 0) scale(2)" fill="rgba(255, 165, 0, 1)"></use><use xlink:href="#SvgjsG1169" transform="translate(384, 48) scale(2)" fill="rgba(255, 165, 0, 1)"></use><use xlink:href="#SvgjsG1170" transform="translate(384, 96) scale(2)" fill="rgba(255, 165, 0, 1)"></use><use xlink:href="#SvgjsG1169" transform="translate(384, 144) scale(2)" fill="rgba(255, 165, 0, 1)"></use><use xlink:href="#SvgjsG1165" transform="translate(384, 192) scale(2)" fill="rgba(255, 165, 0, 1)"></use><use xlink:href="#SvgjsG1168" transform="translate(384, 240) scale(2)" fill="rgba(255, 165, 0, 1)"></use><use xlink:href="#SvgjsG1169" transform="translate(384, 288) scale(2)" fill="rgba(255, 165, 0, 1)"></use><use xlink:href="#SvgjsG1166" transform="translate(384, 336) scale(2)" fill="rgba(255, 165, 0, 1)"></use><use xlink:href="#SvgjsG1170" transform="translate(384, 384) scale(2)" fill="rgba(255, 165, 0, 1)"></use><use xlink:href="#SvgjsG1166" transform="translate(384, 432) scale(2)" fill="rgba(255, 165, 0, 1)"></use><use xlink:href="#SvgjsG1168" transform="translate(432, 0) scale(2)" fill="rgba(255, 165, 0, 1)"></use><use xlink:href="#SvgjsG1167" transform="translate(432, 48) scale(2)" fill="rgba(255, 165, 0, 1)"></use><use xlink:href="#SvgjsG1165" transform="translate(432, 96) scale(2)" fill="rgba(255, 165, 0, 1)"></use><use xlink:href="#SvgjsG1170" transform="translate(432, 144) scale(2)" fill="rgba(255, 165, 0, 1)"></use><use xlink:href="#SvgjsG1170" transform="translate(432, 192) scale(2)" fill="rgba(255, 165, 0, 1)"></use><use xlink:href="#SvgjsG1167" transform="translate(432, 240) scale(2)" fill="rgba(255, 165, 0, 1)"></use><use xlink:href="#SvgjsG1167" transform="translate(432, 288) scale(2)" fill="rgba(255, 165, 0, 1)"></use><use xlink:href="#SvgjsG1170" transform="translate(432, 336) scale(2)" fill="rgba(255, 165, 0, 1)"></use><use xlink:href="#SvgjsG1166" transform="translate(432, 384) scale(2)" fill="rgba(255, 165, 0, 1)"></use><use xlink:href="#SvgjsG1169" transform="translate(432, 432) scale(2)" fill="rgba(255, 165, 0, 1)"></use></g></defs></svg>